<?xml version="1.0" encoding="utf-8"?>
<!-- Generator: Adobe Illustrator 28.0.0, SVG Export Plug-In . SVG Version: 6.00 Build 0)  -->
<svg version="1.1" id="Layer_1" xmlns="http://www.w3.org/2000/svg" xmlns:xlink="http://www.w3.org/1999/xlink" x="0px" y="0px"
	 width="487.5px" height="695.8px" viewBox="0 0 487.5 695.8" style="enable-background:new 0 0 487.5 695.8;" xml:space="preserve"
	>
<path d="M303.7,333.9c0.9,10.5,1.8,20.1,2.3,29.9c0.1,1.6-1.5,3.5-2.8,4.9c-28.8,32.4-56.6,65.5-80.5,101.7
	c-13.4,20.3-26,41.1-33.2,64.6c-2.6,8.5-4.4,17.5-4.6,26.4c-0.5,26.2,19.6,42.2,45.3,36.7c20.9-4.5,36.6-17,49.4-33.3
	c18.6-23.6,29-51,35.7-80c5.8-24.9,8.1-50.2,8.8-75.7c1.1-47.6-4.1-94.7-11.9-141.5c-2.3-13.8-5-27.5-7.6-42.2
	c-6.3,6.1-12,11.5-17.7,17.1C258,270.8,228.3,298.5,195,322c-18.8,13.3-38.4,25.4-61.3,30.1c-22,4.5-43,1.4-61.3-12
	c-14.3-10.4-21.5-26-26.5-42.5c-10.4-34.6-9.7-69.7-2.2-104.7c7.8-36.6,22.4-70.3,45.8-99.8c20.3-25.6,45.7-43.9,77.9-51.8
	c33.5-8.2,62.7,0.8,88.8,22.3c19.2,15.8,30.8,36.9,40.8,59c6.1,13.5,11.2,27.4,16.9,41c1.3,3.1,1.1,5-2,7
	c-6.3,4.1-12.2,8.6-18.8,13.4c-2.6-6-4.9-11.8-7.4-17.5c-9.8-21.9-21.5-42.5-39.1-59.2c-12.9-12.3-27.7-20.7-46.4-19.8
	c-16.9,0.9-30.3,9.3-42.1,20.6c-21.4,20.3-33.5,46-41.8,73.8c-7.3,24.4-10.7,49.4-9.3,75c0.3,5,1,10,2.3,14.8
	c4.3,15.7,16.5,23.2,33.3,20.6c19.1-2.9,36.2-11.3,52.5-21c39.7-23.5,76.8-50.9,114.3-77.6c25.2-17.9,50.5-35.8,76-53.2
	c9.3-6.4,19.6-11.3,31.1-12.9c18.3-2.5,33.1,10.6,33,29.1c-0.2,16.4-7.1,30.6-14.4,44.6c-14.6,27.9-34.2,52.4-54,76.6
	c-10.6,12.9-21.7,25.2-32.3,38c-1.6,1.9-2.7,5.1-2.4,7.5c4.5,41.9,7,84,5.4,126.2c-1.5,40.7-6.2,81-21,119.4
	c-11.5,29.9-28.4,55.9-56.9,72.4c-33.1,19.3-67.5,22.6-101.5,3.1c-31.2-17.8-44.7-45.8-41.9-81.6c2.7-34.1,18.3-62.8,38.3-89.6
	c17.4-23.2,39.1-42.3,59.2-62.9c24.3-24.9,48.8-49.6,73.3-74.5C301.7,335.3,302.4,334.9,303.7,333.9z M342.9,295.6
	c1.3-1.1,2.4-1.8,3.3-2.7c7.2-7.2,14.6-14.1,21.5-21.6c21.9-23.8,42.4-48.7,57.7-77.4c6-11.3,11.1-23.1,11.8-36.2
	c0.8-14.1-9-22.5-22.4-17.9c-9,3.1-18.2,7.1-25.7,12.8c-21.2,16.4-41.5,33.8-62,51c-1,0.8-1.4,3.2-1.2,4.6
	c1.5,7.5,3.4,14.9,4.9,22.4C334.8,251.9,338.7,273.3,342.9,295.6z"/>
</svg>
